<svg xmlns="http://www.w3.org/2000/svg" xmlns:xlink="http://www.w3.org/1999/xlink" version="1.1" x="0px" y="0px" viewBox="0 0 24 30" style="enable-background:new 0 0 24 24;" xml:space="preserve"><g><g><circle cx="11.999" cy="12.001" r="7"/><path d="M15.5,4.001c0.105,0,0.211-0.033,0.301-0.101l0.25-0.189c0.024,0.051,0.053,0.101,0.095,0.143l4,4    c0.042,0.042,0.092,0.071,0.143,0.095L20.1,8.199c-0.167,0.22-0.123,0.534,0.097,0.701c0.09,0.068,0.196,0.101,0.301,0.101    c0.151,0,0.301-0.068,0.399-0.198l2.468-3.263c0.004-0.005,0.005-0.012,0.009-0.018c0.003-0.004,0.008-0.006,0.011-0.01    c0.88-1.344,0.809-2.968-0.173-3.949l-0.775-0.775c-0.98-0.982-2.605-1.054-3.949-0.173c-0.005,0.003-0.008,0.009-0.014,0.013    c-0.004,0.003-0.01,0.004-0.014,0.007l-3.263,2.468c-0.22,0.167-0.264,0.48-0.097,0.701C15.199,3.932,15.348,4.001,15.5,4.001z     M18.767,1.656c0.129,0.03,0.345,0.103,0.628,0.249c0.666,0.504,1.681,1.344,2.445,2.272c0.331,0.501,0.46,0.868,0.503,1.057    l-1.47,1.944c-0.008-0.009-0.011-0.021-0.02-0.03l-4-4c-0.009-0.009-0.021-0.012-0.03-0.02L18.767,1.656z"/><path d="M23.372,18.475c-0.003-0.004-0.004-0.01-0.007-0.014l-2.468-3.263c-0.167-0.22-0.48-0.264-0.701-0.097    c-0.13,0.099-0.198,0.248-0.198,0.399c0,0.105,0.033,0.211,0.101,0.301l0.189,0.25c-0.051,0.024-0.101,0.053-0.143,0.095l-4,4    c-0.042,0.042-0.071,0.092-0.095,0.143l-0.25-0.189c-0.22-0.167-0.534-0.123-0.701,0.097c-0.068,0.09-0.101,0.196-0.101,0.301    c0,0.151,0.068,0.301,0.198,0.399l3.263,2.468c0.005,0.004,0.012,0.005,0.018,0.009c0.004,0.003,0.006,0.008,0.01,0.011    c1.344,0.88,2.968,0.809,3.949-0.173l0.775-0.775c0.982-0.98,1.054-2.605,0.173-3.949C23.381,18.484,23.375,18.481,23.372,18.475z     M22.094,19.396c-0.504,0.666-1.344,1.681-2.272,2.445c-0.501,0.331-0.868,0.46-1.057,0.503l-1.944-1.47    c0.009-0.008,0.021-0.011,0.03-0.02l4-4c0.009-0.009,0.012-0.021,0.02-0.03l1.471,1.945C22.313,18.897,22.24,19.113,22.094,19.396    z"/><path d="M0.625,5.521c0.004,0.006,0.004,0.012,0.009,0.018l2.468,3.263C3.2,8.932,3.35,9.001,3.501,9.001    c0.105,0,0.211-0.033,0.301-0.101c0.22-0.167,0.264-0.48,0.097-0.701l-0.189-0.25c0.051-0.024,0.101-0.053,0.143-0.095l4-4    c0.042-0.042,0.071-0.092,0.095-0.143l0.25,0.189C8.289,3.967,8.395,4.001,8.5,4.001c0.151,0,0.301-0.068,0.399-0.198    c0.167-0.22,0.123-0.534-0.097-0.701L5.539,0.633C5.535,0.63,5.53,0.63,5.525,0.626C5.52,0.623,5.517,0.617,5.511,0.614    C4.167-0.267,2.543-0.195,1.562,0.787L0.787,1.562c-0.982,0.981-1.053,2.605-0.173,3.949C0.617,5.516,0.622,5.517,0.625,5.521z     M2.16,4.177c0.764-0.928,1.779-1.768,2.445-2.272c0.283-0.146,0.499-0.219,0.628-0.249l1.945,1.471    c-0.009,0.008-0.021,0.011-0.03,0.02l-4,4c-0.009,0.009-0.012,0.021-0.02,0.03l-1.47-1.944C1.7,5.045,1.829,4.678,2.16,4.177z"/><path d="M8.201,20.101l-0.25,0.189c-0.024-0.051-0.053-0.101-0.095-0.143l-4-4c-0.042-0.042-0.092-0.071-0.143-0.095l0.189-0.25    c0.068-0.09,0.101-0.196,0.101-0.301c0-0.151-0.068-0.301-0.198-0.399c-0.22-0.167-0.534-0.123-0.701,0.097l-2.468,3.263    c-0.003,0.004-0.004,0.01-0.007,0.014c-0.004,0.005-0.009,0.008-0.013,0.014c-0.881,1.344-0.809,2.969,0.173,3.949l0.775,0.775    c0.981,0.982,2.605,1.053,3.949,0.173c0.004-0.003,0.006-0.008,0.01-0.011c0.006-0.004,0.012-0.004,0.018-0.009l3.263-2.468    c0.13-0.099,0.198-0.248,0.198-0.399c0-0.105-0.033-0.211-0.101-0.301C8.735,19.978,8.421,19.934,8.201,20.101z M5.235,22.344    C5.047,22.3,4.68,22.172,4.179,21.84c-0.928-0.764-1.768-1.779-2.272-2.445c-0.146-0.283-0.219-0.499-0.249-0.628l1.471-1.945    c0.008,0.009,0.011,0.021,0.02,0.03l4,4c0.009,0.009,0.021,0.012,0.03,0.02L5.235,22.344z"/></g></g><text x="0" y="39" fill="#000000" font-size="5px" font-weight="bold" font-family="'Helvetica Neue', Helvetica, Arial-Unicode, Arial, Sans-serif">Created by icon 54</text><text x="0" y="44" fill="#000000" font-size="5px" font-weight="bold" font-family="'Helvetica Neue', Helvetica, Arial-Unicode, Arial, Sans-serif">from the Noun Project</text></svg>