<?xml version="1.0" encoding="UTF-8" standalone="no" ?>
<!DOCTYPE svg PUBLIC "-//W3C//DTD SVG 1.1//EN" "http://www.w3.org/Graphics/SVG/1.1/DTD/svg11.dtd">
<svg xmlns="http://www.w3.org/2000/svg" xmlns:xlink="http://www.w3.org/1999/xlink" version="1.1" width="1080" height="1080" viewBox="0 0 1080 1080" xml:space="preserve">
<desc>Created with Fabric.js 5.2.4</desc>
<defs>
</defs>
<rect x="0" y="0" width="100%" height="100%" fill="transparent"></rect>
<g transform="matrix(1 0 0 1 540 540)" id="f6c5d1fb-b669-4db1-9a48-171df13ce063"  >
<rect style="stroke: none; stroke-width: 1; stroke-dasharray: none; stroke-linecap: butt; stroke-dashoffset: 0; stroke-linejoin: miter; stroke-miterlimit: 4; fill: rgb(255,255,255); fill-rule: nonzero; opacity: 1; visibility: hidden;" vector-effect="non-scaling-stroke"  x="-540" y="-540" rx="0" ry="0" width="1080" height="1080" />
</g>
<g transform="matrix(1 0 0 1 540 540)" id="0d9fd680-e138-45f4-b86c-01ef40c4107a"  >
</g>
<g transform="matrix(1 0 0 1 1722.86 680.57)"  >
<path style="stroke: rgb(0,0,0); stroke-width: 0; stroke-dasharray: none; stroke-linecap: butt; stroke-dashoffset: 0; stroke-linejoin: miter; stroke-miterlimit: 4; fill: rgb(87,122,110); fill-rule: nonzero; opacity: 1;" vector-effect="non-scaling-stroke"  transform=" translate(-1728, -70.27)" d="M 0 40.4465 L 24 33.2965 C 48 26.1465 96 11.8465 144 4.69651 C 192 -2.45349 240 -2.45349 288 11.8465 C 336 26.1465 384 54.7465 432 57.1163 C 480 59.6494 528 35.5437 576 21.3662 C 624 6.94365 672 2.44937 720 7.06623 C 768 11.8465 816 26.1465 864 30.9268 C 912 35.5437 960 31.0494 1008 33.2965 C 1056 35.5437 1104 45.3494 1152 52.3768 C 1200 59.6494 1248 64.1437 1296 57.1163 C 1344 49.8437 1392 31.0494 1440 40.4465 C 1488 49.8437 1536 88.2494 1584 85.7163 C 1632 83.3465 1680 40.4465 1728 38.0768 C 1776 35.5437 1824 73.9494 1872 95.2768 C 1920 116.849 1968 121.344 2016 121.466 C 2064 121.344 2112 116.849 2160 102.427 C 2208 88.2494 2256 64.1437 2304 47.5965 C 2352 31.0494 2400 21.2437 2448 26.1465 C 2496 31.0494 2544 49.8437 2592 57.1163 C 2640 64.1437 2688 59.6494 2736 59.5268 C 2784 59.6494 2832 64.1437 2880 69.0465 C 2928 73.9494 2976 78.4437 3024 76.1965 C 3072 73.9494 3120 64.1437 3168 71.4163 C 3216 78.4437 3264 102.549 3312 102.427 C 3360 102.549 3408 78.4437 3432 66.6768 L 3456 54.7465 L 3456 140.547 L 3432 140.547 C 3408 140.547 3360 140.547 3312 140.547 C 3264 140.547 3216 140.547 3168 140.547 C 3120 140.547 3072 140.547 3024 140.547 C 2976 140.547 2928 140.547 2880 140.547 C 2832 140.547 2784 140.547 2736 140.547 C 2688 140.547 2640 140.547 2592 140.547 C 2544 140.547 2496 140.547 2448 140.547 C 2400 140.547 2352 140.547 2304 140.547 C 2256 140.547 2208 140.547 2160 140.547 C 2112 140.547 2064 140.547 2016 140.547 C 1968 140.547 1920 140.547 1872 140.547 C 1824 140.547 1776 140.547 1728 140.547 C 1680 140.547 1632 140.547 1584 140.547 C 1536 140.547 1488 140.547 1440 140.547 C 1392 140.547 1344 140.547 1296 140.547 C 1248 140.547 1200 140.547 1152 140.547 C 1104 140.547 1056 140.547 1008 140.547 C 960 140.547 912 140.547 864 140.547 C 816 140.547 768 140.547 720 140.547 C 672 140.547 624 140.547 576 140.547 C 528 140.547 480 140.547 432 140.547 C 384 140.547 336 140.547 288 140.547 C 240 140.547 192 140.547 144 140.547 C 96 140.547 48 140.547 24 140.547 L 0 140.547 L 0 40.4465 Z" stroke-linecap="round" />
</g>
</svg>